<svg width="45" height="38" viewBox="0 0 45 38" fill="none" xmlns="http://www.w3.org/2000/svg">
<path d="M29.1817 37.3225C37.2174 36.9951 42.2124 34.6469 44.0874 28.8731C44.6383 26.0181 44.6335 21.374 44.6035 16.885V16.875L44.6035 3.12499C44.6035 1.39369 43.2098 -5.88164e-06 41.4785 -5.88164e-06H27.8184C26.0871 -5.88164e-06 24.6934 1.39369 24.6934 3.12499L24.6934 16.875C24.6934 18.6062 26.0871 20 27.8184 20L36.5079 20C40.9843 27.1271 34.2556 31.7415 28.8047 31.6679C28.4494 31.7179 27.8486 32.3714 27.9063 33.125V35.8925C28.097 36.6915 28.8012 37.2783 29.1817 37.3183V37.3225Z" fill="#5BBC2E"/>
<path d="M4.48826 37.3225C12.524 36.9951 17.519 34.6469 19.394 28.8731C19.9449 26.0181 19.9401 21.374 19.9101 16.885V16.875L19.9101 3.12499C19.9101 1.39369 18.5164 -5.88164e-06 16.7851 -5.88164e-06H3.12498C1.39373 -5.88164e-06 -1.97935e-05 1.39369 -1.97935e-05 3.12499L-1.97935e-05 16.875C-1.97935e-05 18.6062 1.39373 20 3.12498 20L11.8144 20C16.2909 27.1271 9.56221 31.7415 4.1113 31.6679C3.75602 31.7179 3.15521 32.3714 3.21287 33.125V35.8925C3.40362 36.6915 4.10777 37.2783 4.48826 37.3183V37.3225Z" fill="#5BBC2E"/>
</svg>
