<svg width="45" height="38" viewBox="0 0 45 38" fill="none" xmlns="http://www.w3.org/2000/svg">
<path d="M15.4326 0C7.39686 0.3274 2.40182 2.6756 0.526822 8.4494C-0.0240577 11.3044 -0.0192176 15.9485 0.0107124 20.4375V20.4475V34.1975C0.0107124 35.9288 1.40446 37.3225 3.13571 37.3225H16.7959C18.5271 37.3225 19.9209 35.9288 19.9209 34.1975V20.4475C19.9209 18.7163 18.5271 17.3225 16.7959 17.3225H8.10641C3.62995 10.1954 10.3586 5.581 15.8095 5.6546C16.1648 5.6046 16.7656 4.9511 16.708 4.1975V1.43C16.5172 0.631 15.8131 0.0442 15.4326 0.0042V0Z" fill="#5BBC2E"/>
<path d="M40.126 0C32.0903 0.3274 27.0952 2.6756 25.2202 8.4494C24.6694 11.3044 24.6742 15.9485 24.7041 20.4375V20.4475V34.1975C24.7041 35.9288 26.0979 37.3225 27.8291 37.3225H41.4893C43.2205 37.3225 44.6143 35.9288 44.6143 34.1975V20.4475C44.6143 18.7163 43.2205 17.3225 41.4893 17.3225H32.7998C28.3234 10.1954 35.0521 5.581 40.503 5.6546C40.8582 5.6046 41.4591 4.9511 41.4014 4.1975V1.43C41.2106 0.631 40.5065 0.0442 40.126 0.0042V0Z" fill="#5BBC2E"/>
</svg>
